<svg width="65" height="65" viewBox="0 0 65 65" fill="none" xmlns="http://www.w3.org/2000/svg">
<path d="M32.5 8.125V13.5417M32.5 13.5417C28.7504 13.5417 25.085 14.6536 21.9673 16.7367C18.8496 18.8199 16.4197 21.7808 14.9848 25.245C13.5499 28.7091 13.1744 32.521 13.9059 36.1986C14.6375 39.8761 16.4431 43.2542 19.0944 45.9056C21.7458 48.5569 25.1239 50.3625 28.8014 51.0941C32.479 51.8256 36.2909 51.4501 39.755 50.0152C43.2192 48.5803 46.1801 46.1504 48.2633 43.0327C50.3464 39.915 51.4583 36.2496 51.4583 32.5M32.5 13.5417C37.5281 13.5417 42.3502 15.5391 45.9056 19.0944C49.4609 22.6498 51.4583 27.4719 51.4583 32.5M56.875 32.5H51.4583M32.5 56.875V51.4583M8.125 32.5H13.5417" stroke="white" stroke-width="5" stroke-linecap="round" stroke-linejoin="round"/>
<circle cx="32.5" cy="32.5" r="4.81482" fill="white"/>
</svg>
