<svg width="48" height="48" viewBox="0 0 48 48" fill="none" xmlns="http://www.w3.org/2000/svg">
<path d="M24 30C27.3138 30 30 27.3138 30 24C30 20.6862 27.3138 18 24 18C20.6862 18 18 20.6862 18 24C18 27.3138 20.6862 30 24 30Z" stroke="white" stroke-width="3.84" stroke-miterlimit="10" stroke-linecap="round" stroke-linejoin="round"/>
<path d="M4 25.7598V22.2398C4 20.1598 5.7 18.4399 7.8 18.4399C11.42 18.4399 12.9 15.8799 11.08 12.7399C10.04 10.9399 10.66 8.59987 12.48 7.55987L15.94 5.57987C17.52 4.63987 19.56 5.19987 20.5 6.77987L20.72 7.15987C22.52 10.2999 25.48 10.2999 27.3 7.15987L27.52 6.77987C28.46 5.19987 30.5 4.63987 32.08 5.57987L35.54 7.55987C37.36 8.59987 37.98 10.9399 36.94 12.7399C35.12 15.8799 36.6 18.4399 40.22 18.4399C42.3 18.4399 44.02 20.1398 44.02 22.2398V25.7598C44.02 27.8398 42.32 29.5598 40.22 29.5598C36.6 29.5598 35.12 32.1198 36.94 35.2598C37.98 37.0798 37.36 39.3998 35.54 40.4398L32.08 42.4198C30.5 43.3598 28.46 42.7998 27.52 41.2198L27.3 40.8398C25.5 37.6998 22.54 37.6998 20.72 40.8398L20.5 41.2198C19.56 42.7998 17.52 43.3598 15.94 42.4198L12.48 40.4398C10.66 39.3998 10.04 37.0598 11.08 35.2598C12.9 32.1198 11.42 29.5598 7.8 29.5598C5.7 29.5598 4 27.8398 4 25.7598Z" stroke="white" stroke-width="3.84" stroke-miterlimit="10" stroke-linecap="round" stroke-linejoin="round"/>
</svg>
