<svg width="65" height="65" viewBox="0 0 65 65" fill="none" xmlns="http://www.w3.org/2000/svg">
<path d="M56.31 34.1453C56.9711 33.5785 57.3016 33.2952 57.4229 32.958C57.5291 32.662 57.5291 32.3383 57.4229 32.0423C57.3016 31.7051 56.9711 31.4218 56.31 30.855L33.3683 11.1909C32.2302 10.2154 31.6612 9.7276 31.1794 9.71566C30.7607 9.70528 30.3607 9.88923 30.0961 10.2139C29.7917 10.5875 29.7917 11.337 29.7917 12.836V24.469C24.0102 25.4804 18.7189 28.4099 14.7867 32.8085C10.4997 37.6042 8.12833 43.81 8.125 50.2423V51.8998C10.967 48.4762 14.5153 45.7075 18.5271 43.7829C22.064 42.0862 25.8874 41.0811 29.7917 40.8162V52.1644C29.7917 53.6632 29.7917 54.4129 30.0961 54.7864C30.3607 55.1111 30.7607 55.295 31.1794 55.2847C31.6612 55.2728 32.2302 54.785 33.3683 53.8095L56.31 34.1453Z" stroke="white" stroke-width="4.33333" stroke-linecap="round" stroke-linejoin="round"/>
</svg>
